<?xml version="1.0" encoding="iso-8859-1"?>
<!-- Generator: Adobe Illustrator 19.0.0, SVG Export Plug-In . SVG Version: 6.00 Build 0)  -->
<svg version="1.1" id="Layer_1" xmlns="http://www.w3.org/2000/svg" xmlns:xlink="http://www.w3.org/1999/xlink" x="0px" y="0px"
	 viewBox="0 0 511.997 511.997" style="enable-background:new 0 0 511.997 511.997;" xml:space="preserve">
<g>
	<g>
		<path d="M440.955,116.032H263.832V92.969c15.964-4.009,27.93-19.984,27.93-39.037c0-32.492-31.062-47.722-32.385-48.354
			l-3.38-1.617l-3.38,1.617c-1.323,0.633-32.385,15.862-32.385,48.354c0,19.054,11.967,35.029,27.931,39.037v23.063H71.045
			c-22.659,0-41.093,18.434-41.093,41.093v77.45v242.122h82.467v-15.669h-0.001H45.62V388.19
			c10.685,1.449,17.009,5.878,24.12,10.868c9.493,6.661,20.253,14.212,40.955,14.212c20.701,0,31.461-7.55,40.954-14.212
			c8.693-6.102,16.202-11.371,31.955-11.371c15.753,0,23.261,5.269,31.956,11.371c9.493,6.661,20.253,14.212,40.955,14.212
			s31.463-7.55,40.955-14.213c8.693-6.101,16.202-11.37,31.954-11.37c15.755,0,23.265,5.269,31.959,11.371
			c9.495,6.661,20.256,14.212,40.96,14.212c20.764,0,31.261-7.584,40.523-14.276c6.859-4.955,12.958-9.354,23.512-10.803v72.836
			H133.312v15.669h348.736V295.043V157.125C482.048,134.466,463.613,116.032,440.955,116.032z M235.901,53.931
			c0-17.466,13.562-28.15,20.085-32.278c6.494,4.137,20.108,14.884,20.108,32.278c0,13.425-9.015,24.348-20.095,24.348
			C244.916,78.279,235.901,67.356,235.901,53.931z M466.378,372.412c-15.725,1.633-24.672,8.089-32.688,13.881
			c-8.399,6.067-15.651,11.307-31.347,11.307c-15.756,0-23.265-5.269-31.959-11.371c-9.494-6.661-20.256-14.213-40.959-14.213
			c-20.702,0-31.462,7.552-40.955,14.213c-8.693,6.102-16.202,11.371-31.955,11.371c-15.753,0-23.26-5.269-31.955-11.37
			c-9.493-6.663-20.254-14.214-40.956-14.214s-31.463,7.552-40.956,14.214c-8.693,6.101-16.201,11.37-31.953,11.37
			c-15.753,0-23.261-5.269-31.955-11.37c-8.214-5.765-17.39-12.185-33.121-13.814V234.574c0.001-15.734,12.802-28.534,28.536-28.534
			s28.535,12.8,28.535,28.533v60.47c0,24.373,19.83,44.203,44.204,44.203s44.204-19.83,44.204-44.203v-60.47
			c0-15.733,12.8-28.533,28.533-28.533c15.735,0,28.535,12.8,28.535,28.533v34.883c0,24.373,19.83,44.203,44.204,44.203
			c24.374,0,44.203-19.829,44.203-44.203v-9.297c0-15.734,12.8-28.534,28.534-28.534c15.735,0,28.535,12.8,28.535,28.534v34.883
			c0,24.373,19.83,44.203,44.204,44.203c10.869,0,20.828-3.95,28.534-10.481V372.412z M466.378,295.043
			c0,15.734-12.8,28.534-28.534,28.534c-15.735,0-28.535-12.8-28.535-28.534V260.16c0-24.373-19.83-44.203-44.204-44.203
			c-24.374,0-44.203,19.829-44.203,44.203v9.297c0,15.734-12.801,28.534-28.534,28.534c-15.735,0-28.535-12.8-28.535-28.534v-34.883
			c0-24.373-19.83-44.202-44.204-44.202c-24.374,0-44.202,19.829-44.202,44.202v60.47c0,15.734-12.801,28.534-28.535,28.534
			c-15.734,0-28.535-12.8-28.535-28.534v-60.47c0-24.373-19.83-44.202-44.204-44.202c-10.866,0-20.829,3.941-28.534,10.468v-43.716
			H45.62c0-14.019,11.405-25.424,25.424-25.424h369.909c14.019,0,25.424,11.405,25.424,25.424V295.043z"/>
	</g>
</g>
<g>
	<g>
		<rect y="492.368" width="511.997" height="15.669"/>
	</g>
</g>
<g>
</g>
<g>
</g>
<g>
</g>
<g>
</g>
<g>
</g>
<g>
</g>
<g>
</g>
<g>
</g>
<g>
</g>
<g>
</g>
<g>
</g>
<g>
</g>
<g>
</g>
<g>
</g>
<g>
</g>
</svg>
